<?xml version="1.0" encoding="utf-8"?>
<svg width="800px" height="800px" viewBox="0 -0.5 25 25" fill="none" xmlns="http://www.w3.org/2000/svg">
<path d="M8.5 10.5H10.5M9.5 9.5V11.5" stroke="#000000" stroke-width="1.5" stroke-linecap="round" stroke-linejoin="round"/>
<path d="M15 10.5H16" stroke="#000000" stroke-width="1.5" stroke-linecap="round" stroke-linejoin="round"/>
<path d="M15.5 12C15.7761 12 16 11.7761 16 11.5C16 11.2239 15.7761 11 15.5 11C15.2239 11 15 11.2239 15 11.5C15 11.7761 15.2239 12 15.5 12Z" fill="#000000"/>
<path fill-rule="evenodd" clip-rule="evenodd" d="M6.5 7.5H18.5C19.6046 7.5 20.5 8.39543 20.5 9.5V14.5C20.5 15.6046 19.6046 16.5 18.5 16.5H6.5C5.39543 16.5 4.5 15.6046 4.5 14.5V9.5C4.5 8.39543 5.39543 7.5 6.5 7.5Z" stroke="#000000" stroke-width="1.5" stroke-linecap="round" stroke-linejoin="round"/>
</svg>
